<svg width="381" height="55" viewBox="0 0 381 55" fill="none" xmlns="http://www.w3.org/2000/svg">
<path d="M0.390625 30.4531H0V44.5989C0 49.9687 4.34896 54.3229 9.71875 54.3229H23.8698C23.974 54.3229 24.0729 54.2812 24.1458 54.2083C24.224 54.1354 24.2656 54.0312 24.2656 53.9271V30.4531C24.2656 30.3489 24.224 30.2448 24.1458 30.1719C24.0729 30.0989 23.974 30.0573 23.8698 30.0573H0.390625C0.286458 30.0573 0.187501 30.0989 0.114583 30.1719C0.0416673 30.2448 0 30.3489 0 30.4531H0.390625V30.8489H23.474V53.5312H9.71875C7.25521 53.5312 5.02083 52.5364 3.40625 50.9167C1.78646 49.3021 0.786458 47.0677 0.786458 44.5989V30.4531H0.390625Z" fill="#131313"/>
<path d="M23.8698 0.395833V0H9.71875C4.34896 0 0 4.35417 0 9.72396V23.8698C0 23.974 0.0416673 24.0729 0.114583 24.151C0.187501 24.224 0.286458 24.2656 0.390625 24.2656H23.8698C23.974 24.2656 24.0729 24.224 24.1458 24.151C24.224 24.0729 24.2656 23.9792 24.2656 23.8698V0.395833C24.2656 0.291668 24.224 0.187499 24.1458 0.114583C24.0729 0.0416673 23.974 0 23.8698 0V0.395833H23.474V23.474H0.786458V9.72396C0.786458 7.25521 1.78646 5.02083 3.40625 3.40625C5.02083 1.78646 7.25521 0.786458 9.71875 0.786458H23.8698V0.395833Z" fill="#131313"/>
<path d="M53.9271 23.8698H54.3229V9.72396C54.3229 4.35417 49.9688 0 44.599 0H30.4531C30.349 0 30.25 0.0416673 30.1771 0.114583C30.099 0.187499 30.0573 0.291668 30.0573 0.395833V23.8698C30.0573 23.974 30.099 24.0729 30.1771 24.151C30.25 24.224 30.349 24.2656 30.4531 24.2656H53.9271C54.0313 24.2656 54.1302 24.224 54.2031 24.151C54.2813 24.0729 54.3229 23.974 54.3229 23.8698H53.9271V23.474H30.849V0.786458H44.599C47.0677 0.786458 49.2969 1.78646 50.9167 3.40625C52.5313 5.02083 53.5313 7.25521 53.5313 9.72396V23.8698H53.9271Z" fill="#131313"/>
<path d="M30.4531 53.9271V54.3229H44.599C49.9688 54.3229 54.3229 49.9687 54.3229 44.5989V30.4531C54.3229 30.3489 54.2813 30.2448 54.2031 30.1719C54.1302 30.0989 54.0313 30.0573 53.9271 30.0573H30.4531C30.349 30.0573 30.25 30.0989 30.1771 30.1719C30.099 30.2448 30.0573 30.3489 30.0573 30.4531V53.9271C30.0573 54.0312 30.099 54.1354 30.1771 54.2083C30.25 54.2812 30.349 54.3229 30.4531 54.3229V53.9271H30.849V30.8489H53.5313V44.5989C53.5313 47.0677 52.5313 49.3021 50.9167 50.9167C49.2969 52.5364 47.0677 53.5312 44.599 53.5312H30.4531V53.9271Z" fill="#131313"/>
<path d="M18.2813 10.3021V9.91145H14.3542V5.98436C14.3542 5.8802 14.3125 5.77603 14.2396 5.70311C14.1667 5.6302 14.0625 5.58853 13.9584 5.58853H10.3021C10.1979 5.58853 10.0938 5.6302 10.0209 5.70311C9.94794 5.77603 9.90627 5.8802 9.90627 5.98436V9.91145H5.9844C5.88023 9.91145 5.77606 9.95311 5.70315 10.026C5.63023 10.0989 5.58856 10.1979 5.58856 10.3021V13.9635C5.58856 14.0625 5.63023 14.1667 5.70315 14.2396C5.77606 14.3125 5.88023 14.3542 5.9844 14.3542H9.90627V18.2812C9.90627 18.3854 9.94794 18.4844 10.0209 18.5625C10.0938 18.6354 10.1979 18.6771 10.3021 18.6771H13.9584C14.0625 18.6771 14.1667 18.6354 14.2396 18.5625C14.3125 18.4844 14.3542 18.3854 14.3542 18.2812V14.3542H18.2813C18.3854 14.3542 18.4844 14.3125 18.5573 14.2396C18.6354 14.1667 18.6719 14.0625 18.6719 13.9635V10.3021C18.6719 10.1979 18.6354 10.0989 18.5573 10.026C18.4844 9.95311 18.3854 9.91145 18.2813 9.91145V10.3021H17.8854V13.5677H13.9584C13.8542 13.5677 13.7552 13.6094 13.6823 13.6823C13.6094 13.7552 13.5625 13.8594 13.5625 13.9635V17.8854H10.6979V13.9635C10.6979 13.8594 10.6563 13.7552 10.5834 13.6823C10.5104 13.6094 10.4063 13.5677 10.3021 13.5677H6.37502V10.6979H10.3021C10.4063 10.6979 10.5104 10.6562 10.5834 10.5833C10.6563 10.5104 10.6979 10.4062 10.6979 10.3021V6.3802H13.5625V10.3021C13.5625 10.4062 13.6094 10.5104 13.6823 10.5833C13.7552 10.6562 13.8542 10.6979 13.9584 10.6979H18.2813V10.3021Z" fill="#131313"/>
<path d="M18.1198 38.9479L18.4011 38.6667L15.6563 35.9167C15.5781 35.8437 15.4792 35.8073 15.375 35.8073C15.2709 35.8073 15.1719 35.8437 15.099 35.9167L12.1302 38.8854L9.16669 35.9167C9.01044 35.7656 8.76044 35.7656 8.60419 35.9167L5.8594 38.6667C5.78648 38.7396 5.74481 38.8437 5.74481 38.9479C5.74481 39.0521 5.78648 39.151 5.8594 39.2239L8.82294 42.1927L5.8594 45.1562C5.78648 45.2292 5.74481 45.3333 5.74481 45.4375C5.74481 45.5417 5.78648 45.6406 5.8594 45.7135L8.60419 48.4635C8.76044 48.6146 9.01044 48.6146 9.16669 48.4635L12.1302 45.4948L15.099 48.4635C15.1719 48.5364 15.2709 48.5781 15.375 48.5781C15.4792 48.5781 15.5781 48.5364 15.6563 48.4635L18.4011 45.7135C18.5521 45.5625 18.5521 45.3125 18.4011 45.1562L15.4323 42.1927L18.4011 39.2239C18.5521 39.0677 18.5521 38.8229 18.4011 38.6667L18.1198 38.9479L17.8438 38.6667L14.599 41.9114C14.4427 42.0625 14.4427 42.3177 14.599 42.4687L17.5625 45.4375L15.375 47.625L12.4115 44.6614C12.2552 44.5052 12.0052 44.5052 11.8542 44.6614L8.88544 47.625L6.69794 45.4375L9.66148 42.4687C9.73439 42.3958 9.77606 42.2917 9.77606 42.1927C9.77606 42.0885 9.73439 41.9844 9.66148 41.9114L6.69794 38.9479L8.88544 36.7552L11.8542 39.7239C11.9271 39.7969 12.0261 39.8385 12.1302 39.8385C12.2344 39.8385 12.3334 39.7969 12.4115 39.7239L15.375 36.7552L17.8438 39.2239L18.1198 38.9479Z" fill="#131313"/>
<path d="M48.3386 10.3021H47.9427V13.5677H36.4375V10.6979H48.3386V10.3021V9.91147H36.0417C35.9375 9.91147 35.8333 9.95313 35.7604 10.0261C35.6875 10.099 35.6458 10.1979 35.6458 10.3021V13.9636C35.6458 14.0677 35.6875 14.1667 35.7604 14.2396C35.8333 14.3177 35.9375 14.3542 36.0417 14.3542H48.3386C48.4427 14.3542 48.5417 14.3177 48.6198 14.2396C48.6927 14.1667 48.7344 14.0677 48.7344 13.9636V10.3021C48.7344 10.1979 48.6927 10.099 48.6198 10.0261C48.5417 9.95313 48.4427 9.91147 48.3386 9.91147V10.3021Z" fill="#131313"/>
<path d="M48.5469 37.0312H48.1511V40.4167H36.2292V37.4271H48.5469V37.0312V36.6354H35.8333C35.7292 36.6354 35.6302 36.6771 35.5573 36.7552C35.4844 36.8281 35.4427 36.9271 35.4427 37.0312V40.8125C35.4427 40.9114 35.4844 41.0156 35.5573 41.0885C35.6302 41.1614 35.7292 41.2031 35.8333 41.2031H48.5469C48.6511 41.2031 48.75 41.1614 48.8229 41.0885C48.8958 41.0156 48.9375 40.9114 48.9375 40.8125V37.0312C48.9375 36.9271 48.8958 36.8281 48.8229 36.7552C48.75 36.6771 48.6511 36.6354 48.5469 36.6354V37.0312Z" fill="#131313"/>
<path d="M48.5469 43.5729H48.1511V46.9583H36.2292V43.9636H48.5469V43.5729V43.1771H35.8333C35.7292 43.1771 35.6302 43.2188 35.5573 43.2917C35.4844 43.3646 35.4427 43.4688 35.4427 43.5729V47.349C35.4427 47.4531 35.4844 47.5573 35.5573 47.6302C35.6302 47.7031 35.7292 47.7448 35.8333 47.7448H48.5469C48.6511 47.7448 48.75 47.7031 48.8229 47.6302C48.8958 47.5573 48.9375 47.4531 48.9375 47.349V43.5729C48.9375 43.4688 48.8958 43.3646 48.8229 43.2917C48.75 43.2188 48.6511 43.1771 48.5469 43.1771V43.5729Z" fill="#131313"/>
<path d="M94.5332 17.5223V35.1681H92.7415V21.0431L85.804 32.9181H84.929L77.9915 21.1265V35.1681H76.1999V17.5223H77.7415L85.4082 30.6056L92.9915 17.5223H94.5332Z" fill="#131313"/>
<path d="M116.728 30.4598H106.895L104.79 35.1681H102.832L110.915 17.5223H112.749L120.811 35.1681H118.853L116.728 30.4598ZM116.04 28.939L111.811 19.4598L107.582 28.939H116.04Z" fill="#131313"/>
<path d="M132.57 19.1265H126.362V17.5223H140.633V19.1265H134.424V35.1681H132.57V19.1265Z" fill="#131313"/>
<path d="M163.746 17.5223V35.1681H161.892V27.0223H150.85V35.1681H148.996V17.5223H150.85V25.3973H161.892V17.5223H163.746Z" fill="#131313"/>
<path d="M205.215 17.5223V35.1681H203.424V21.0431L196.486 32.9181H195.611L188.674 21.1265V35.1681H186.882V17.5223H188.424L196.09 30.6056L203.674 17.5223H205.215Z" fill="#131313"/>
<path d="M227.41 30.4598H217.577L215.473 35.1681H213.514L221.598 17.5223H223.431L231.494 35.1681H229.535L227.41 30.4598ZM226.723 28.939L222.494 19.4598L218.264 28.939H226.723Z" fill="#131313"/>
<path d="M239.815 17.5223H247.002C248.862 17.5223 250.508 17.8973 251.94 18.6473C253.367 19.3973 254.482 20.439 255.273 21.7723C256.065 23.1056 256.461 24.6265 256.461 26.3348C256.461 28.0588 256.065 29.5848 255.273 30.9181C254.482 32.2515 253.367 33.2931 251.94 34.0431C250.508 34.7931 248.862 35.1681 247.002 35.1681H239.815V17.5223ZM246.898 33.564C248.44 33.564 249.784 33.2619 250.94 32.6473C252.107 32.0223 253.008 31.1681 253.648 30.0848C254.284 29.0015 254.607 27.7515 254.607 26.3348C254.607 24.9338 254.284 23.689 253.648 22.6056C253.008 21.5223 252.107 20.6786 250.94 20.064C249.784 19.439 248.44 19.1265 246.898 19.1265H241.669V33.564H246.898Z" fill="#131313"/>
<path d="M278.508 33.564V35.1681H266.029V17.5223H278.133V19.1265H267.883V25.4181H277.029V27.0015H267.883V33.564H278.508Z" fill="#131313"/>
<path d="M312.766 33.564V35.1681H300.286V17.5223H312.391V19.1265H302.141V25.4181H311.286V27.0015H302.141V33.564H312.766Z" fill="#131313"/>
<path d="M333.606 30.4598H323.773L321.669 35.1681H319.711L327.794 17.5223H329.627L337.69 35.1681H335.731L333.606 30.4598ZM332.919 28.939L328.69 19.4598L324.461 28.939H332.919Z" fill="#131313"/>
<path d="M350.865 35.314C349.558 35.314 348.303 35.1056 347.094 34.689C345.896 34.2723 344.975 33.7202 344.324 33.0223L345.053 31.5848C345.688 32.2254 346.537 32.7463 347.594 33.1473C348.646 33.5379 349.74 33.7306 350.865 33.7306C352.449 33.7306 353.636 33.4494 354.428 32.8765C355.219 32.2931 355.615 31.5379 355.615 30.6056C355.615 29.8973 355.396 29.3348 354.969 28.9181C354.537 28.5015 354.011 28.1838 353.386 27.9598C352.771 27.7254 351.912 27.4754 350.803 27.2098C349.469 26.866 348.407 26.5379 347.615 26.2306C346.834 25.9285 346.162 25.4546 345.594 24.814C345.021 24.1785 344.74 23.3088 344.74 22.2098C344.74 21.3244 344.975 20.5171 345.449 19.7931C345.917 19.0588 346.641 18.4754 347.615 18.0431C348.6 17.6004 349.813 17.3765 351.261 17.3765C352.261 17.3765 353.24 17.5171 354.199 17.7931C355.167 18.0744 356.011 18.4546 356.719 18.939L356.094 20.4181C355.355 19.9338 354.563 19.5744 353.719 19.3348C352.886 19.0848 352.063 18.9598 351.261 18.9598C349.704 18.9598 348.537 19.2619 347.761 19.8556C346.98 20.4546 346.594 21.2254 346.594 22.1681C346.594 22.866 346.803 23.4285 347.219 23.8556C347.646 24.2879 348.188 24.6213 348.844 24.8556C349.495 25.0796 350.365 25.3244 351.449 25.5848C352.74 25.9077 353.782 26.2254 354.574 26.5431C355.376 26.8504 356.058 27.3244 356.615 27.9598C357.167 28.5848 357.449 29.4338 357.449 30.5015C357.449 31.3921 357.204 32.2046 356.719 32.939C356.245 33.6785 355.516 34.2619 354.532 34.689C353.542 35.1056 352.324 35.314 350.865 35.314Z" fill="#131313"/>
<path d="M372.949 29.064V35.1681H371.116V29.064L364.053 17.5223H366.053L372.095 27.439L378.158 17.5223H380.012L372.949 29.064Z" fill="#131313"/>
</svg>
